<mxfile host="app.diagrams.net" modified="2024-07-16T00:52:00.146Z" agent="Mozilla/5.0 (Windows NT 10.0; Win64; x64) AppleWebKit/537.36 (KHTML, like Gecko) Chrome/114.0.0.0 Safari/537.36" version="24.6.4" etag="-MqsNkkHS1rXZyw_ocmT" type="github">
  <diagram name="第 1 页" id="W4AuCiLOHfoQ3W9QX4Dh">
    <mxGraphModel>
      <root>
        <mxCell id="0" />
        <mxCell id="1" parent="0" />
      </root>
    </mxGraphModel>
  </diagram>
</mxfile>
